<?xml version="1.0" standalone="no"?>
<!DOCTYPE svg PUBLIC "-//W3C//DTD SVG 20010904//EN"
 "http://www.w3.org/TR/2001/REC-SVG-20010904/DTD/svg10.dtd">
<svg version="1.0" xmlns="http://www.w3.org/2000/svg"
 width="1177.000000pt" height="1177.000000pt" viewBox="0 0 1177.000000 1177.000000"
 preserveAspectRatio="xMidYMid meet">
<metadata>
Created by potrace 1.11, written by Peter Selinger 2001-2013
</metadata>
<g transform="translate(0.000000,1177.000000) scale(0.100000,-0.100000)"
fill="#000000" stroke="none">
<path d="M0 5885 l0 -5885 5885 0 5885 0 0 5885 0 5885 -5885 0 -5885 0 0
-5885z m5865 2270 c413 0 783 3 823 8 l72 7 0 -99 0 -99 -62 -6 c-419 -35
-457 -47 -495 -161 -16 -46 -18 -196 -23 -1820 -7 -1899 -7 -1907 -59 -2161
-65 -316 -232 -619 -466 -843 -239 -228 -464 -347 -681 -358 -55 -3 -126 -3
-156 1 l-56 7 0 245 -1 244 31 16 c29 15 32 14 87 -14 130 -70 306 -92 430
-53 137 43 204 129 240 307 45 222 46 289 46 2174 0 1780 -4 2014 -36 2210
-13 81 -25 106 -69 141 -56 45 -133 60 -337 66 l-183 6 0 98 0 99 73 -7 c39
-5 410 -8 822 -8z"/>
</g>
</svg>
